<?xml version="1.0" standalone="no"?>
<!DOCTYPE svg PUBLIC "-//W3C//DTD SVG 20010904//EN"
 "http://www.w3.org/TR/2001/REC-SVG-20010904/DTD/svg10.dtd">
<svg version="1.0" xmlns="http://www.w3.org/2000/svg"
 width="744.000000pt" height="744.000000pt" viewBox="0 0 744.000000 744.000000"
 preserveAspectRatio="xMidYMid meet">
<metadata>
Created by potrace 1.11, written by Peter Selinger 2001-2013
</metadata>
<g transform="translate(0.000000,744.000000) scale(0.100000,-0.100000)"
fill="#000000" stroke="none">
<path d="M3320 6649 c-930 -67 -1793 -370 -2373 -832 -392 -312 -635 -672
-728 -1076 -30 -129 -37 -378 -14 -512 59 -354 228 -665 519 -954 146 -146
246 -226 431 -350 235 -156 455 -269 715 -367 58 -22 108 -43 112 -46 3 -4
-342 -394 -768 -866 -425 -473 -772 -861 -770 -863 2 -2 629 327 1395 732
l1392 735 152 -11 c302 -23 817 -2 1142 46 1107 163 2022 647 2461 1301 119
179 206 380 250 584 15 66 19 127 19 275 0 207 -11 278 -67 450 -304 937
-1551 1647 -3080 1755 -169 12 -619 11 -788 -1z m3206 -1168 c55 -25 111 -94
131 -160 24 -84 12 -184 -52 -441 -66 -265 -78 -317 -156 -684 -32 -154 -61
-281 -63 -283 -6 -6 -151 18 -166 27 -10 6 -10 114 -1 536 6 291 13 597 15
679 2 124 7 159 25 206 45 118 159 169 267 120z m-4904 -116 c12 -68 14 -92 5
-97 -7 -4 -41 -8 -77 -9 -88 -1 -116 -10 -112 -35 5 -24 255 -574 262 -574 5
0 22 26 183 280 124 195 167 296 136 315 -6 4 -52 10 -102 14 l-92 6 -12 70
c-7 39 -15 82 -17 98 l-6 27 377 -2 378 -3 11 -50 c6 -27 14 -69 17 -91 l7
-42 -72 -10 c-63 -10 -76 -15 -109 -49 -21 -21 -156 -225 -300 -453 l-262
-415 -33 -270 c-37 -304 -42 -425 -19 -449 8 -8 41 -17 72 -20 32 -4 87 -10
123 -14 l64 -7 17 -92 16 -93 -498 0 -497 0 -10 48 c-6 26 -13 68 -17 93 l-7
45 94 11 c51 6 106 16 121 22 50 19 62 68 100 411 l36 315 -182 390 c-100 214
-196 416 -214 447 -35 61 -39 62 -175 83 l-36 6 -16 87 c-9 48 -16 90 -16 95
0 4 190 6 422 5 l423 -3 17 -90z m2728 -554 l24 -19 -12 -127 c-7 -70 -11
-129 -9 -131 2 -2 21 21 41 51 57 82 158 178 227 215 186 99 380 7 422 -200
l13 -61 63 81 c166 215 360 277 517 165 85 -61 124 -148 124 -279 0 -45 -16
-243 -35 -441 -18 -198 -32 -361 -30 -363 2 -2 36 45 76 104 39 60 75 108 79
107 8 -2 137 -90 154 -104 20 -17 -122 -239 -206 -321 -75 -74 -144 -109 -225
-116 -153 -12 -253 96 -253 274 0 35 14 229 30 431 30 372 35 463 24 463 -20
0 -77 -47 -112 -93 -100 -131 -184 -295 -225 -437 -22 -76 -53 -297 -73 -532
l-7 -78 -183 0 -184 0 0 23 c0 12 23 265 50 561 27 297 47 543 44 548 -8 13
-58 -18 -92 -56 -43 -50 -121 -167 -170 -256 -80 -147 -126 -333 -183 -737
l-11 -83 -184 0 -184 0 5 38 c8 55 105 1063 105 1089 0 22 -3 23 -95 23 -52 0
-95 2 -95 4 0 2 -7 41 -16 86 -8 46 -12 86 -7 90 4 4 73 19 153 34 80 15 199
40 265 55 122 28 129 28 175 -8z m-1546 3 c34 -35 34 -28 -14 -604 -45 -531
-45 -530 -28 -530 22 0 104 96 155 181 142 236 207 423 279 807 l26 142 179 0
c98 0 179 -1 179 -3 0 -1 -22 -249 -50 -552 -27 -302 -48 -550 -46 -552 2 -2
34 44 71 102 36 58 69 105 72 105 4 0 41 -21 84 -46 l78 -45 -34 -76 c-75
-163 -180 -295 -274 -343 -88 -44 -201 -37 -278 19 -61 44 -86 105 -93 225
l-5 99 -54 -88 c-107 -176 -238 -274 -379 -283 -156 -10 -263 79 -287 240 -4
28 6 230 25 494 28 380 31 447 19 455 -8 5 -49 9 -91 9 l-77 0 -13 78 c-7 42
-13 81 -13 87 0 12 441 104 501 104 32 1 47 -5 68 -25z m3541 -1018 c173 -80
209 -279 72 -390 -36 -29 -44 -31 -122 -31 -79 0 -85 2 -137 38 -64 44 -106
111 -115 185 -19 164 145 272 302 198z"/>
</g>
</svg>
